<svg width="20" height="20" viewBox="0 0 20 20" fill="none" xmlns="http://www.w3.org/2000/svg">
<path fill-rule="evenodd" clip-rule="evenodd" d="M10 4C10.552 4 11 3.553 11 3V1C11 0.447 10.552 0 10 0C9.448 0 9 0.447 9 1V3C9 3.553 9.448 4 10 4ZM10 12C8.897 12 8 11.103 8 10C8 8.897 8.897 8 10 8C11.103 8 12 8.897 12 10C12 11.103 11.103 12 10 12ZM10 6C7.794 6 6 7.794 6 10C6 12.206 7.794 14 10 14C12.206 14 14 12.206 14 10C14 7.794 12.206 6 10 6ZM17 9H19C19.552 9 20 9.447 20 10C20 10.553 19.552 11 19 11H17C16.448 11 16 10.553 16 10C16 9.447 16.448 9 17 9ZM4 10C4 9.447 3.552 9 3 9H1C0.448 9 0 9.447 0 10C0 10.553 0.448 11 1 11H3C3.552 11 4 10.553 4 10ZM2.8067 3.0533C3.1907 2.6573 3.8237 2.6453 4.2207 3.0283L5.6597 4.4183C6.0567 4.8013 6.0677 5.4353 5.6837 5.8323C5.4877 6.0353 5.2267 6.1373 4.9647 6.1373C4.7147 6.1373 4.4647 6.0453 4.2697 5.8573L2.8307 4.4673C2.4337 4.0843 2.4227 3.4503 2.8067 3.0533ZM15.0352 6.1377C15.2852 6.1377 15.5352 6.0447 15.7302 5.8577L17.1692 4.4677C17.5662 4.0837 17.5772 3.4497 17.1932 3.0537C16.8102 2.6577 16.1782 2.6457 15.7792 3.0287L14.3402 4.4177C13.9432 4.8017 13.9322 5.4357 14.3162 5.8317C14.5122 6.0347 14.7732 6.1377 15.0352 6.1377ZM9 17C9 16.447 9.448 16 10 16C10.552 16 11 16.447 11 17V19C11 19.553 10.552 20 10 20C9.448 20 9 19.553 9 19V17ZM15.73 14.1426C15.333 13.7596 14.7 13.7716 14.316 14.1676C13.932 14.5646 13.943 15.1986 14.34 15.5816L15.779 16.9716C15.974 17.1596 16.224 17.2516 16.474 17.2516C16.736 17.2516 16.997 17.1496 17.193 16.9466C17.577 16.5496 17.566 15.9156 17.169 15.5326L15.73 14.1426ZM2.831 15.5326L4.27 14.1426C4.668 13.7596 5.301 13.7716 5.684 14.1676C6.068 14.5646 6.057 15.1986 5.66 15.5816L4.221 16.9716C4.026 17.1596 3.776 17.2516 3.526 17.2516C3.264 17.2516 3.003 17.1496 2.807 16.9466C2.423 16.5496 2.434 15.9156 2.831 15.5326Z" fill="white"/>
</svg>
