<svg width="26" height="26" viewBox="0 0 26 26" fill="none" xmlns="http://www.w3.org/2000/svg">
<path d="M0.5 13C0.5 11.9188 0.6375 10.8713 0.895 9.87002C1.58558 9.90632 2.27275 9.75095 2.88055 9.4211C3.48835 9.09125 3.9931 8.59975 4.33901 8.00095C4.68492 7.40214 4.85851 6.71935 4.84059 6.02804C4.82268 5.33674 4.61396 4.66385 4.2375 4.08376C5.74868 2.59698 7.61349 1.51938 9.65625 0.952515C9.96999 1.56936 10.4483 2.08735 11.0382 2.44915C11.6282 2.81096 12.3067 3.00246 12.9987 3.00246C13.6908 3.00246 14.3693 2.81096 14.9593 2.44915C15.5492 2.08735 16.0275 1.56936 16.3413 0.952515C18.384 1.51938 20.2488 2.59698 21.76 4.08376C21.3831 4.66396 21.1741 5.3371 21.156 6.02872C21.138 6.72034 21.3116 7.40347 21.6577 8.00253C22.0038 8.60159 22.5089 9.09322 23.1171 9.42303C23.7253 9.75285 24.4129 9.90798 25.1038 9.87126C25.3613 10.8713 25.4988 11.9188 25.4988 13C25.4988 14.0813 25.3613 15.1288 25.1038 16.13C24.4131 16.0935 23.7257 16.2487 23.1177 16.5784C22.5098 16.9082 22.0048 17.3996 21.6588 17.9985C21.3127 18.5973 21.139 19.2802 21.1569 19.9717C21.1747 20.6631 21.3835 21.3361 21.76 21.9163C20.2488 23.4031 18.384 24.4806 16.3413 25.0475C16.0275 24.4307 15.5492 23.9127 14.9593 23.5509C14.3693 23.1891 13.6908 22.9976 12.9987 22.9976C12.3067 22.9976 11.6282 23.1891 11.0382 23.5509C10.4483 23.9127 9.96999 24.4307 9.65625 25.0475C7.61349 24.4806 5.74868 23.4031 4.2375 21.9163C4.61438 21.3361 4.82341 20.6629 4.84146 19.9713C4.85951 19.2797 4.68587 18.5966 4.33976 17.9975C3.99366 17.3984 3.48857 16.9068 2.88038 16.577C2.2722 16.2472 1.58463 16.0921 0.89375 16.1288C0.6375 15.13 0.5 14.0825 0.5 13ZM6.505 16.75C7.2925 18.1138 7.5175 19.6825 7.21 21.155C7.72 21.5175 8.2625 21.8313 8.83125 22.0925C9.97708 21.0661 11.4616 20.4989 13 20.5C14.575 20.5 16.0475 21.0888 17.1688 22.0925C17.7375 21.8313 18.28 21.5175 18.79 21.155C18.4743 19.65 18.7253 18.0814 19.495 16.75C20.2633 15.418 21.4963 14.4165 22.9575 13.9375C23.0153 13.3139 23.0153 12.6862 22.9575 12.0625C21.4958 11.5838 20.2623 10.5823 19.4937 9.25001C18.7241 7.91868 18.473 6.35006 18.7888 4.84501C18.2789 4.48242 17.7361 4.16854 17.1675 3.90751C16.022 4.93368 14.5379 5.50078 13 5.50001C11.4616 5.50108 9.97708 4.93397 8.83125 3.90751C8.26266 4.16855 7.71986 4.48242 7.21 4.84501C7.52571 6.35006 7.27466 7.91868 6.505 9.25001C5.73671 10.582 4.50373 11.5836 3.0425 12.0625C2.98469 12.6862 2.98469 13.3139 3.0425 13.9375C4.50419 14.4162 5.73766 15.4177 6.50625 16.75H6.505ZM13 16.75C12.0054 16.75 11.0516 16.3549 10.3483 15.6517C9.64509 14.9484 9.25 13.9946 9.25 13C9.25 12.0055 9.64509 11.0516 10.3483 10.3484C11.0516 9.6451 12.0054 9.25001 13 9.25001C13.9946 9.25001 14.9484 9.6451 15.6517 10.3484C16.3549 11.0516 16.75 12.0055 16.75 13C16.75 13.9946 16.3549 14.9484 15.6517 15.6517C14.9484 16.3549 13.9946 16.75 13 16.75ZM13 14.25C13.3315 14.25 13.6495 14.1183 13.8839 13.8839C14.1183 13.6495 14.25 13.3315 14.25 13C14.25 12.6685 14.1183 12.3506 13.8839 12.1161C13.6495 11.8817 13.3315 11.75 13 11.75C12.6685 11.75 12.3505 11.8817 12.1161 12.1161C11.8817 12.3506 11.75 12.6685 11.75 13C11.75 13.3315 11.8817 13.6495 12.1161 13.8839C12.3505 14.1183 12.6685 14.25 13 14.25V14.25Z" fill="white"/>
</svg>
